<svg width="150" height="45" viewBox="0 0 150 45" fill="none" xmlns="http://www.w3.org/2000/svg">
<g clip-path="url(#clip0_11576_106517)">
<path d="M19.4844 45C19.4844 45 0 39.2484 0 10.8631V0H38.9689V10.8631C38.9689 38.2332 19.4844 45 19.4844 45Z" fill="#52AF3D"/>
<path d="M30.7321 10.9494H15.0391V19.9692H30.7347V22.6683C30.7347 27.2347 29.4459 30.9192 22.5024 30.9358H15.0391V42.8453C17.616 44.4482 19.4832 45 19.4832 45C19.4832 45 38.9677 38.2338 38.9677 10.863V2.67725C38.9677 7.24557 36.9491 10.8657 30.7321 10.9494Z" fill="#105431"/>
<path d="M49.7949 21.7951V6.43677H59.2038V7.56822C59.2038 8.72292 58.2676 9.65916 57.1129 9.65916H53.5545V12.8816H58.237V13.9725C58.237 15.1498 57.2835 16.1033 56.1069 16.1033H53.5545V21.7951H49.7949Z" fill="#1D1D1B"/>
<path d="M61.3301 21.7951V6.43677H66.6786C68.0391 6.43677 69.0345 6.55828 69.6646 6.80197C70.5531 7.14393 71.2469 7.6997 71.7489 8.46595C72.2496 9.23287 72.4999 10.1665 72.4999 11.27C72.4999 12.1286 72.2994 12.9486 71.899 13.7288C71.4979 14.5104 70.9315 15.086 70.2011 15.4592V15.5017C70.3446 15.6876 70.5378 15.9957 70.7821 16.4253L73.7675 21.7951H69.5783L66.8506 16.6179H65.0897V21.7951L61.3301 21.7951ZM65.0897 13.3955H66.7224C67.3373 13.3955 67.8167 13.2322 68.1613 12.9021C68.5046 12.5735 68.6759 12.108 68.6759 11.5064C68.6759 10.6605 68.3758 10.116 67.7749 9.87297C67.4449 9.73088 66.9721 9.65916 66.3566 9.65916H65.0897V13.3955Z" fill="#1D1D1B"/>
<path d="M75.4648 21.7951V6.43677H85.0889V9.65916H79.2244V12.4506H83.907V15.6724H79.2244V18.5734H85.3897V21.7951H75.4648Z" fill="#1D1D1B"/>
<path d="M87.7949 21.7951V6.43677H97.4189V9.65916H91.5545V12.4506H96.237V15.6724H91.5545V18.5734H97.7197V21.7951H87.7949Z" fill="#1D1D1B"/>
<path d="M100.125 21.7951V6.43677H105.581C108.015 6.43677 109.944 7.11272 111.37 8.46595C112.795 9.81985 113.509 11.6923 113.509 14.0841C113.509 16.4891 112.795 18.3762 111.37 19.744C109.944 21.1112 108.015 21.7951 105.581 21.7951H100.125ZM103.885 18.5734H105.431C106.748 18.5734 107.776 18.1869 108.513 17.414C109.251 16.6405 109.619 15.5303 109.619 14.0841C109.619 12.6518 109.247 11.5562 108.503 10.7973C107.758 10.0376 106.734 9.65916 105.431 9.65916H103.885V18.5734Z" fill="#1D1D1B"/>
<path d="M115.117 14.0194C115.117 11.7844 115.87 9.92053 117.373 8.42255C118.877 6.92655 120.802 6.17822 123.152 6.17822C125.5 6.17822 127.426 6.92655 128.93 8.42255C130.434 9.92053 131.185 11.7844 131.185 14.0194C131.185 16.3095 130.434 18.2219 128.93 19.755C127.426 21.2869 125.5 22.0525 123.152 22.0525C120.802 22.0525 118.877 21.2869 117.373 19.755C115.87 18.2219 115.117 16.3095 115.117 14.0194ZM119.005 14.0194C119.005 15.3368 119.395 16.4317 120.176 17.3062C120.956 18.178 121.949 18.6163 123.152 18.6163C124.354 18.6163 125.345 18.178 126.126 17.3062C126.907 16.4317 127.297 15.3368 127.297 14.0194C127.297 12.7591 126.907 11.7093 126.126 10.8714C125.345 10.0341 124.354 9.61575 123.152 9.61575C121.949 9.61575 120.956 10.0341 120.176 10.8714C119.395 11.7093 119.005 12.7591 119.005 14.0194Z" fill="#1D1D1B"/>
<path d="M132.969 21.7951L134.236 6.43677H138.318L140.552 12.9234L141.325 15.4592H141.368C141.655 14.428 141.912 13.5814 142.141 12.9234L144.375 6.43677H148.457L149.703 21.7951H145.945L145.471 14.8782C145.442 14.5343 145.429 14.1485 145.429 13.7189C145.429 13.2879 145.435 12.9453 145.449 12.6863L145.471 12.3012H145.429C145.084 13.3749 144.798 14.2335 144.57 14.8782L142.959 19.325H139.736L138.125 14.8782L137.265 12.3012H137.222C137.279 13.2461 137.279 14.1046 137.222 14.8782L136.75 21.7951H132.969Z" fill="#1D1D1B"/>
<path d="M50.084 26.9629H52.7632V37.9123H50.084V26.9629Z" fill="#1D1D1B"/>
<path d="M55.0605 26.9629H57.771L60.8028 32.0784C61.2311 32.7975 61.7211 33.9469 61.7211 33.9469H61.7524C61.7524 33.9469 61.6295 32.7676 61.6295 32.0784V26.9629H64.3088V37.9123H61.6143L58.5672 32.8134C58.1382 32.093 57.6482 30.9449 57.6482 30.9449H57.6176C57.6176 30.9449 57.7398 32.1235 57.7398 32.8134V37.9123H55.0606L55.0605 26.9629Z" fill="#1D1D1B"/>
<path d="M67.2645 34.498C67.8767 35.0331 68.9185 35.6314 69.8986 35.6314C70.6489 35.6314 71.0314 35.2941 71.0314 34.8651C71.0314 33.3187 66.1928 33.5637 66.1928 30.1328C66.1928 28.1123 67.8621 26.7803 70.1589 26.7803C71.3833 26.7803 72.6389 27.178 73.5891 28.02L72.4556 30.2098C71.8434 29.6747 70.8932 29.2457 70.0367 29.2457C69.2246 29.2457 68.872 29.5817 68.872 30.0266C68.872 31.5876 73.7113 31.2204 73.7113 34.6806C73.7113 36.5185 72.3487 38.0955 69.8222 38.0955C68.3979 38.0955 66.8966 37.5749 65.8555 36.5344L67.2645 34.498Z" fill="#1D1D1B"/>
<path d="M75.2871 26.9629H77.967V33.8851C77.967 35.0332 78.7173 35.646 79.8661 35.646C81.0148 35.646 81.7651 35.0332 81.7651 33.8851V26.9629H84.445V33.8851C84.445 36.3505 82.6376 38.0955 79.8813 38.0955C77.0945 38.0955 75.2871 36.3505 75.2871 33.8851V26.9629Z" fill="#1D1D1B"/>
<path d="M90.4624 31.925C91.3196 31.925 91.8561 31.4502 91.8561 30.5777C91.8561 30.0266 91.718 29.6129 91.2127 29.4137C90.967 29.3061 90.6456 29.2603 90.2014 29.2603H89.2984V31.925H90.4624ZM86.6191 26.9629H90.4312C91.5493 26.9629 92.0859 27.0399 92.5599 27.2238C93.8003 27.6986 94.5812 28.8168 94.5812 30.4084C94.5812 31.573 94.0301 32.8433 92.9424 33.3957V33.4256C92.9424 33.4256 93.0958 33.6241 93.3561 34.0843L95.4849 37.9129H92.4989L90.554 34.2224H89.2984V37.9129H86.6191V26.9629Z" fill="#1D1D1B"/>
<path d="M101.702 33.471L101.09 31.3429C100.89 30.6543 100.645 29.4591 100.645 29.4591H100.615C100.615 29.4591 100.37 30.6543 100.171 31.3429L99.5425 33.471H101.702ZM99.2211 26.9631H102.038L105.759 37.9125H103.003L102.329 35.6151H98.915L98.2563 37.9125H95.5L99.2211 26.9631Z" fill="#1D1D1B"/>
<path d="M106.861 26.9629H109.572L112.604 32.0784C113.032 32.7975 113.522 33.9469 113.522 33.9469H113.553C113.553 33.9469 113.43 32.7676 113.43 32.0784V26.9629H116.11V37.9123H113.415L110.368 32.8134C109.939 32.093 109.449 30.9449 109.449 30.9449H109.418C109.418 30.9449 109.541 32.1235 109.541 32.8134V37.9123H106.861L106.861 26.9629Z" fill="#1D1D1B"/>
<path d="M123.567 26.78C125.037 26.78 126.598 27.2694 127.67 28.3258L126.43 30.3477C125.726 29.7348 124.669 29.2295 123.689 29.2295C121.499 29.2295 120.596 30.7766 120.596 32.3537C120.596 33.9765 121.576 35.6458 123.689 35.6458C124.776 35.6458 125.848 35.0488 126.598 34.2992L127.977 36.2593C127.012 37.254 125.572 38.0953 123.567 38.0953C120.045 38.0953 117.824 35.661 117.824 32.4154C117.824 29.2295 120.182 26.78 123.567 26.78Z" fill="#1D1D1B"/>
<path d="M129.34 26.9629H136.2V29.2603H132.019V31.251H135.358V33.5478H132.019V35.6148H136.415V37.9123H129.34V26.9629Z" fill="#1D1D1B"/>
</g>
<defs>
<clipPath id="clip0_11576_106517">
<rect width="149.701" height="45" fill="white"/>
</clipPath>
</defs>
</svg>
